<svg id="Capa_1" enable-background="new 0 0 512 512" height="512" viewBox="0 0 512 512" width="512" xmlns="http://www.w3.org/2000/svg"><g><path d="m497 294c0 33.16-6.71 64.75-18.83 93.5h-76.94l-51.39 71.5h-185.26l-51.39-71.5h-79.35c-12.12-28.75-18.84-60.34-18.84-93.5 0-133.1 107.9-241 241-241 .4 0 .81 0 1.21.01 132.55.65 239.79 108.29 239.79 240.99z" fill="#f0f8ff"/><path d="m497 294c0 33.16-6.71 64.75-18.83 93.5h-76.94l-51.39 71.5h-92.63v-405.99c132.55.65 239.79 108.29 239.79 240.99z" fill="#d7e5f4"/><path d="m415.21 294h-30c0-70.58-57.42-128-128-128s-128 57.42-128 128h-30c0-87.12 70.88-158 158-158s158 70.88 158 158z" fill="#ff8548"/><path d="m242.21 53h30v54h-30z" fill="#626d7f"/><path d="m16.21 279h54v30h-54z" fill="#626d7f"/><path d="m444.21 279h54v30h-54z" fill="#464f53"/><path d="m135.21 81.671h30v54h-30z" fill="#626d7f" transform="matrix(.866 -.5 .5 .866 -34.211 89.665)"/><path d="m415.539 172h54v30h-54z" fill="#464f53" transform="matrix(.866 -.5 .5 .866 -34.211 246.325)"/><path d="m56.881 160h30v54h-30z" fill="#626d7f" transform="matrix(.5 -.866 .866 .5 -126.006 155.751)"/><path d="m337.21 93.671h54v30h-54z" fill="#464f53" transform="matrix(.5 -.866 .866 .5 87.992 369.749)"/><path d="m257.21 53h15v54h-15z" fill="#464f53"/><path d="m257.21 166v-30c87.12 0 158 70.88 158 158h-30c0-70.58-57.42-128-128-128z" fill="#f4456a"/><path d="m250.086 248.073h106.67v30h-106.67z" fill="#4c5c72" transform="matrix(.535 -.845 .845 .535 -81.202 378.561)"/><path d="m298.14 363.42c-9.23 14.55-24.86 22.62-40.93 22.86-9.25.15-18.64-2.31-27.03-7.62-22.94-14.54-29.78-45.02-15.24-67.97 9.48-14.96 25.74-23.07 42.27-22.86 8.82.1 17.71 2.56 25.69 7.62 22.94 14.54 29.78 45.03 15.24 67.97z" fill="#ff6826"/><path d="m257.21 386.28v-98.45c8.82.1 17.71 2.56 25.69 7.62 22.94 14.54 29.78 45.03 15.24 67.97-9.23 14.55-24.86 22.62-40.93 22.86z" fill="#e50057"/><path d="m437.02 112.98c-48.06-48.06-111.88-74.66-179.81-74.97-.4-.01-.81-.01-1.21-.01-68.38 0-132.66 26.63-181.01 74.98-48.36 48.35-74.99 112.64-74.99 181.02 0 34.41 6.74 67.82 20.02 99.33l3.86 9.17h81.62l51.39 71.5h200.64l51.39-71.5h79.21l3.86-9.17c13.28-31.51 20.01-64.92 20.01-99.33 0-68.38-26.62-132.67-74.98-181.02zm30.96 259.52h-74.44l-51.39 71.5h-169.88l-51.39-71.5h-76.85c-9.31-25.08-14.03-51.44-14.03-78.5 0-124.62 101.39-226 226-226 .4 0 .81 0 1.21.01 124.07.65 224.79 101.77 224.79 225.99 0 27.06-4.71 53.42-14.02 78.5z" fill="#d5dcea"/><path d="m512 294c0 34.41-6.73 67.82-20.01 99.33l-3.86 9.17h-79.21l-51.39 71.5h-100.32v-30h84.94l51.39-71.5h74.44c9.31-25.08 14.02-51.44 14.02-78.5 0-124.22-100.72-225.34-224.79-225.99v-30c67.93.31 131.75 26.91 179.81 74.97 48.36 48.35 74.98 112.64 74.98 181.02z" fill="#b7c3d9"/></g></svg>